#!OML:ASF F:\twosubjects\two\wednesday\Session 1\rory1.ASF
:FULLY-SPECIFIED
:DEGREES
163
root 1.80714 17.5896 -1.03719 181.924 -44.8318 -169.987
lowerback 5.07061 -0.592943 -8.59502
upperback 1.90512 -1.30724 -0.872864
thorax -0.700135 -0.721002 3.98707
lowerneck 2.43146 -19.094 -18.5844
upperneck 7.27106 -31.1749 28.1801
head 9.60639 -15.4873 8.09422
rclavicle 1.43125e-014 -5.40694e-014
rhumerus 50.0079 -63.244 -88.2424
rradius 18.5173
rwrist -22.2807
rhand 4.36941 -2.99447
rfingers 7.12502
rthumb 29.7683 -30.6234
lclavicle 1.43125e-014 -5.40694e-014
lhumerus -15.2458 -2.43707 56.5075
lradius 42.2839
lwrist 14.7019
lhand -28.4266 18.3246
lfingers 7.12502
lthumb -1.79796 48.2968
rfemur -36.3823 -14.3416 31.1205
rtibia 45.0727
rfoot -14.3884 -19.6201
rtoes 23.5728
lfemur -5.81206 15.3208 -31.1436
ltibia 38.5086
lfoot 15.0892 -6.20316
ltoes 10.1816
164
root 1.62358 17.5735 -1.08058 182.11 -44.459 -169.852
lowerback 5.101 -0.725557 -8.62215
upperback 1.80931 -1.49096 -0.882193
thorax -0.791983 -0.804888 4.00357
lowerneck 2.29692 -19.181 -18.4886
upperneck 7.39741 -31.2966 28.0399
head 9.65619 -15.5291 7.98787
rclavicle 8.50798e-014 1.74931e-014
rhumerus 50.1563 -63.7466 -88.4187
rradius 18.3879
rwrist -22.3321
rhand 4.52935 -2.89091
rfingers 7.12502
rthumb 29.921 -30.4925
lclavicle 8.50798e-014 1.74931e-014
lhumerus -15.9274 -2.71582 55.9627
lradius 42.5828
lwrist 14.944
lhand -28.7604 20.1661
lfingers 7.12502
lthumb -2.12027 50.1353
rfemur -35.6728 -11.754 29.9992
rtibia 44.8037
rfoot -14.9076 -20.1926
rtoes 25.5012
lfemur -6.45805 15.0343 -30.5616
ltibia 39.2718
lfoot 17.8062 -5.88328
ltoes 2.88684
165
root 1.4427 17.5398 -1.10806 182.582 -44.0888 -170.106
lowerback 5.18472 -0.768111 -8.79492
upperback 1.67702 -1.57484 -0.975199
thorax -0.963217 -0.836047 4.01149
lowerneck 2.55213 -19.3045 -18.4714
upperneck 7.21376 -31.5312 28.1959
head 9.63865 -15.6741 7.9989
rclavicle -3.10104e-014 -5.08889e-014
rhumerus 53.0261 -65.2624 -91.2123
rradius 17.9244
rwrist -20.3204
rhand 5.77405 -2.90435
rfingers 7.12502
rthumb 31.108 -30.2852
lclavicle -3.10104e-014 -5.08889e-014
lhumerus -16.6109 -3.10781 55.5824
lradius 42.8285
lwrist 15.3857
lhand -28.5536 18.0016
lfingers 7.12502
lthumb -1.92054 47.9727
rfemur -35.3951 -9.69752 28.6714
rtibia 45.0643
rfoot -15.3564 -20.2099
rtoes 24.799
lfemur -7.45713 14.5559 -30.3267
ltibia 40.6513
lfoot 19.68 -6.82836
ltoes -4.59505
166
root 1.25731 17.522 -1.12516 182.597 -43.8126 -170.033
lowerback 5.62004 -1.01621 -8.61492
upperback 1.64906 -1.94208 -0.955072
thorax -1.19235 -1.00834 3.96397
lowerneck 2.39707 -19.3351 -18.7894
upperneck 7.40525 -31.6609 28.2686
head 9.83656 -15.7198 8.00028
rclavicle 2.38542e-014 -3.81667e-014
rhumerus 59.3363 -66.8541 -97.7193
rradius 17.3643
rwrist -15.4917
rhand 8.30054 -2.76941
rfingers 7.12502
rthumb 33.5127 -29.66
lclavicle 2.38542e-014 -3.81667e-014
lhumerus -17.6234 -2.97543 55.2168
lradius 43.1741
lwrist 15.943
lhand -28.4675 17.2915
lfingers 7.12502
lthumb -1.83744 47.2633
rfemur -35.0798 -8.32536 27.6926
rtibia 45.3106
rfoot -15.2592 -20.3965
rtoes 22.4873
lfemur -8.48018 13.9275 -29.8159
ltibia 42.7131
lfoot 20.7502 -8.81357
ltoes -6.71153
167
root 1.06866 17.5121 -1.15095 182.089 -43.4332 -169.594
lowerback 6.16634 -1.25782 -8.22882
upperback 1.78646 -2.29082 -0.891828
thorax -1.32201 -1.1822 3.84977
lowerneck 2.27731 -19.3014 -19.0653
upperneck 7.3747 -31.6662 28.4858
head 9.94692 -15.723 8.08208
rclavicle 6.32135e-014 -3.65764e-014
rhumerus 58.1315 -66.2778 -96.5616
rradius 17.5216
rwrist -18.9037
rhand 4.73271 -2.62941
rfingers 7.12502
rthumb 30.115 -30.1958
lclavicle 6.32135e-014 -3.65764e-014
lhumerus -18.5046 -2.88516 54.7914
lradius 43.3809
lwrist 16.3878
lhand -27.992 18.0653
lfingers 7.12502
lthumb -1.37821 48.0406
rfemur -34.1636 -8.2518 27.6725
rtibia 45.5992
rfoot -14.9878 -20.525
rtoes 16.6877
lfemur -9.3469 13.5253 -28.9434
ltibia 45.2932
lfoot 20.6081 -11.0413
ltoes -7.2514
168
root 0.885017 17.4689 -1.18584 181.391 -42.8547 -168.844
lowerback 6.47678 -1.27885 -7.65962
upperback 1.95604 -2.30631 -0.832337
thorax -1.33825 -1.19539 3.60237
lowerneck 2.44587 -19.4057 -18.9231
upperneck 7.04266 -31.7737 28.5962
head 9.83002 -15.8049 8.08696
rclavicle -3.18055e-015 -4.77083e-014
rhumerus 62.5456 -67.4073 -101.241
rradius 17.2496
rwrist -18.0863
rhand 5.33671 -2.37165
rfingers 7.12502
rthumb 30.6911 -29.8315
lclavicle -3.18055e-015 -4.77083e-014
lhumerus -18.9472 -2.91294 54.4858
lradius 43.1515
lwrist 16.19
lhand -28.0227 18.6771
lfingers 7.12502
lthumb -1.40788 48.6522
rfemur -33.4064 -7.73082 27.5777
rtibia 45.3746
rfoot -15.3361 -20.3596
rtoes 17.6818
lfemur -10.448 13.3901 -27.8516
ltibia 48.3928
lfoot 18.4027 -12.5969
ltoes -12.6003
169
root 0.700549 17.4546 -1.23008 180.27 -42.087 -167.497
lowerback 6.8001 -1.19596 -6.86126
upperback 2.15501 -2.15775 -0.573207
thorax -1.35026 -1.12603 3.42227
lowerneck 2.35279 -19.5993 -18.6307
upperneck 6.95471 -31.927 28.362
head 9.74951 -15.8643 7.92205
rclavicle 9.85972e-014 7.95139e-014
rhumerus 67.0418 -68.487 -105.777
rradius 17.0456
rwrist -16.8099
rhand 6.18376 -2.36205
rfingers 7.12502
rthumb 31.4984 -29.6673
lclavicle 9.85972e-014 7.95139e-014
lhumerus -19.2596 -2.52877 54.391
lradius 42.6543
lwrist 15.5892
lhand -28.4608 18.5619
lfingers 7.12502
lthumb -1.83098 48.5338
rfemur -32.4 -7.61672 28.3099
rtibia 45.1242
rfoot -15.3799 -20.1319
rtoes 17.779
lfemur -11.5812 13.3691 -26.1752
ltibia 51.6886
lfoot 14.9705 -12.5584
ltoes -18.4311
170
root 0.528514 17.4446 -1.29034 179.085 -40.9978 -166.155
lowerback 7.22629 -1.0651 -6.33294
upperback 2.3797 -1.96938 -0.20395
thorax -1.38035 -1.03895 3.50528
lowerneck 2.66708 -19.6256 -18.9169
upperneck 6.45531 -32.0038 28.8437
head 9.70328 -15.9595 8.11654
rclavicle -2.62396e-014 1.90833e-014
rhumerus 70.2752 -69.0124 -108.857
rradius 16.9143
rwrist -16.5869
rhand 6.13389 -2.48123
rfingers 7.12502
rthumb 31.4509 -29.7958
lclavicle -2.62396e-014 1.90833e-014
lhumerus -19.7794 -2.54108 54.1379
lradius 42.3847
lwrist 15.7771
lhand -28.3172 18.3809
lfingers 7.12502
lthumb -1.69227 48.3539
rfemur -31.1879 -7.31308 29.2061
rtibia 44.6214
rfoot -14.7248 -20.1869
rtoes 15.8315
lfemur -12.6348 13.631 -24.2946
ltibia 55.0355
lfoot 11.5414 -11.6895
ltoes -20.2506
171
root 0.35249 17.4472 -1.34983 178.702 -39.7981 -165.646
lowerback 7.44226 -0.99609 -6.33517
upperback 2.47057 -1.8912 -0.0139481
thorax -1.40757 -1.0039 3.70288
lowerneck 3.31773 -19.4942 -19.5141
upperneck 5.75791 -31.9764 29.6923
head 9.64612 -16.0619 8.53466
rclavicle 7.55382e-014 4.92986e-014
rhumerus 71.7845 -69.1735 -110.398
rradius 16.8666
rwrist -16.8067
rhand 6.05502 -2.49731
rfingers 7.12502
rthumb 31.3757 -29.8265
lclavicle 7.55382e-014 4.92986e-014
lhumerus -20.63 -2.99447 53.6055
lradius 42.2108
lwrist 16.6376
lhand -27.1472 18.2855
lfingers 7.12502
lthumb -0.56222 48.2645
rfemur -30.1709 -7.45952 29.6231
rtibia 44.0871
rfoot -13.7951 -19.9071
rtoes 11.3236
lfemur -13.928 13.8949 -23.1991
ltibia 58.2674
lfoot 7.95762 -11.0554
ltoes -22.0477
172
root 0.165796 17.4647 -1.40085 178.795 -38.5192 -165.453
lowerback 7.45141 -0.955209 -6.32341
upperback 2.56132 -1.83606 0.0884708
thorax -1.32147 -0.983741 3.79707
lowerneck 2.67047 -19.6026 -19.641
upperneck 5.99926 -32.0866 29.5924
head 9.87123 -16.042 8.40035
rclavicle -3.97569e-014 4.92986e-014
rhumerus 73.5888 -69.0979 -112.275
rradius 16.7987
rwrist -16.6254
rhand 5.38225 -2.02035
rfingers 7.12502
rthumb 30.7345 -29.4721
lclavicle -3.97569e-014 4.92986e-014
lhumerus -21.0935 -2.41114 53.3734
lradius 41.4188
lwrist 16.3621
lhand -25.6852 18.0046
lfingers 7.12502
lthumb 0.849821 47.9827
rfemur -29.4406 -7.75419 29.7217
rtibia 43.6172
rfoot -13.4707 -18.9982
rtoes 7.74682
lfemur -15.5021 14.0209 -22.5474
ltibia 61.2974
lfoot 4.19157 -10.2011
ltoes -25.0797
